<svg width="36" height="36" viewBox="0 0 36 36" fill="none" xmlns="http://www.w3.org/2000/svg">
<path d="M10.904 0.0116976C11.3264 0.0602952 11.7121 0.274624 11.9765 0.607565C12.2409 0.940506 12.3622 1.36481 12.3139 1.78719L12.2215 2.58899C12.1975 2.79822 12.1325 3.00069 12.0303 3.18481C11.928 3.36893 11.7905 3.53112 11.6256 3.66209C11.4607 3.79307 11.2715 3.89028 11.069 3.94818C10.8665 4.00607 10.6546 4.02351 10.4454 3.9995C10.2361 3.9755 10.0337 3.91051 9.84956 3.80826C9.66544 3.70601 9.50325 3.56849 9.37228 3.40356C9.2413 3.23863 9.14409 3.04952 9.08619 2.84702C9.0283 2.64452 9.01086 2.43261 9.03487 2.22337L9.12723 1.42029C9.17583 0.997934 9.39016 0.612161 9.7231 0.347781C10.056 0.0834002 10.4803 -0.0379473 10.9027 0.0104148M17.2401 2.71856C17.352 2.14511 17.2316 1.55069 16.9054 1.06596C16.5792 0.581235 16.0739 0.245866 15.5005 0.13357C15.2166 0.0786216 14.9246 0.080169 14.6412 0.138124C14.3578 0.19608 14.0887 0.309307 13.8491 0.471335C13.6095 0.633363 13.4042 0.841015 13.2449 1.08242C13.0856 1.32383 12.9754 1.59427 12.9207 1.87828L12.709 2.9623C12.6532 3.24635 12.654 3.53861 12.7113 3.82237C12.7685 4.10613 12.8812 4.37581 13.0427 4.61601C13.2043 4.8562 13.4116 5.0622 13.6528 5.22222C13.8941 5.38223 14.1645 5.49313 14.4486 5.54857C15.6417 5.77949 16.7962 4.99822 17.0284 3.80258L17.2401 2.71856Z" fill="black"/>
<path d="M14.963 8.87542C14.963 5.02681 11.8072 4.488 7.90723 4.488C4.00731 4.488 0.941244 4.97549 0.864272 8.7343V22.987C0.862277 23.8949 1.07444 24.7904 1.48353 25.6009C1.89262 26.4114 2.48711 27.114 3.2187 27.6516C3.9503 28.1893 4.79838 28.5467 5.69407 28.6951C6.58976 28.8434 7.50781 28.7783 8.37365 28.5053C9.2395 28.2322 10.0287 27.7587 10.6772 27.1233C11.3257 26.488 11.8153 25.7086 12.106 24.8485C12.3968 23.9885 12.4806 23.072 12.3507 22.1734C12.2207 21.2749 11.8807 20.4196 11.3582 19.6772C10.9426 18.7925 10.8194 17.7985 11.0062 16.8391C11.193 15.8797 11.6802 15.0046 12.3973 14.3405C13.2033 13.6767 13.8517 12.842 14.2954 11.8968C14.7392 10.9516 14.9672 9.91958 14.963 8.87542ZM8.5615 1.83246C8.5615 1.44799 8.40877 1.07926 8.13691 0.807404C7.86505 0.535542 7.49632 0.382812 7.11185 0.382812C6.72739 0.382812 6.35866 0.535542 6.0868 0.807404C5.81494 1.07926 5.66221 1.44799 5.66221 1.83246V2.56369C5.66221 2.94816 5.81494 3.31689 6.0868 3.58875C6.35866 3.86061 6.72739 4.01334 7.11185 4.01334C7.49632 4.01334 7.86505 3.86061 8.13691 3.58875C8.40877 3.31689 8.5615 2.94816 8.5615 2.56369V1.83246ZM3.68915 1.10122C4.0367 1.0623 4.38548 1.16302 4.65877 1.38122C4.93207 1.59942 5.1075 1.91725 5.1465 2.26478L5.22347 2.92803C5.26393 3.27541 5.16475 3.62463 4.94774 3.89889C4.73074 4.17315 4.41369 4.34998 4.06632 4.3905C3.71898 4.42906 3.37053 4.32818 3.09752 4.11001C2.82451 3.89184 2.64926 3.57423 2.61026 3.22694L2.53329 2.56498C2.49281 2.2178 2.59182 1.86875 2.80855 1.59453C3.02528 1.3203 3.34202 1.14333 3.68915 1.1025" fill="black"/>
<path d="M0.864192 2.68328L0.852646 2.68585C0.710196 2.72045 0.575958 2.78278 0.457598 2.86927C0.339239 2.95576 0.239077 3.06472 0.162834 3.18992C0.0865906 3.31513 0.0357595 3.45413 0.0132437 3.59898C-0.00927213 3.74383 -0.00303177 3.8917 0.0316088 4.03415L0.168876 4.59476C0.203479 4.73721 0.265805 4.87145 0.352295 4.98981C0.438786 5.10817 0.547745 5.20833 0.67295 5.28457C0.798156 5.36082 0.937155 5.41165 1.08201 5.43416C1.22686 5.45668 1.37473 5.45044 1.51717 5.4158L1.53 5.41195C1.81742 5.34205 2.06533 5.16092 2.21928 4.90835C2.37322 4.65578 2.42062 4.35243 2.35104 4.06494L2.21377 3.50304C2.17917 3.36059 2.11684 3.22635 2.03035 3.10799C1.94386 2.98963 1.8349 2.88947 1.7097 2.81322C1.58449 2.73698 1.44549 2.68615 1.30064 2.66363C1.15579 2.64112 1.00792 2.64736 0.865475 2.682M25.5466 10.2804C25.3374 10.3044 25.1255 10.2869 24.923 10.2289C24.7205 10.1709 24.5315 10.0737 24.3666 9.94262C24.2017 9.81158 24.0643 9.64935 23.9621 9.46518C23.8599 9.28102 23.795 9.07853 23.7711 8.86929L23.6788 8.06749C23.6547 7.85825 23.672 7.64632 23.7299 7.44379C23.7877 7.24126 23.8848 7.0521 24.0157 6.88711C24.1466 6.72212 24.3088 6.58453 24.4929 6.4822C24.677 6.37988 24.8794 6.31481 25.0886 6.29072C25.2979 6.26663 25.5098 6.28398 25.7124 6.3418C25.9149 6.39961 26.104 6.49675 26.269 6.62767C26.434 6.75859 26.5716 6.92072 26.6739 7.10482C26.7763 7.28891 26.8413 7.49135 26.8654 7.70059L26.9565 8.50367C26.9806 8.71291 26.9633 8.92486 26.9055 9.12741C26.8477 9.32995 26.7506 9.51912 26.6196 9.68412C26.4887 9.84912 26.3266 9.9867 26.1425 10.089C25.9583 10.1913 25.7559 10.2564 25.5466 10.2804ZM18.9758 10.0931C19.0305 10.3774 19.1407 10.648 19.3001 10.8896C19.4594 11.1312 19.6648 11.3391 19.9045 11.5014C20.1441 11.6636 20.4134 11.7771 20.697 11.8352C20.9805 11.8934 21.2727 11.8952 21.5569 11.8404C22.13 11.7278 22.635 11.3923 22.961 10.9076C23.2869 10.423 23.4071 9.8287 23.2952 9.25543L23.0848 8.17269C22.9742 7.59897 22.6403 7.09264 22.1566 6.765C21.6728 6.43735 21.0787 6.31521 20.505 6.42542C20.2208 6.48086 19.9504 6.59176 19.7092 6.75177C19.468 6.91179 19.2607 7.11778 19.0991 7.35798C18.9375 7.59818 18.8249 7.86786 18.7676 8.15162C18.7104 8.43537 18.7096 8.72763 18.7654 9.01169L18.9758 10.0931Z" fill="black"/>
<path d="M21.0313 15.1614C21.0313 11.3128 24.2 10.774 28.0871 10.774C31.9742 10.774 35.0659 11.2615 35.1428 15.0203V29.2858C35.1428 30.8169 34.5346 32.2853 33.452 33.3679C32.3694 34.4505 30.901 35.0588 29.3699 35.0588C27.8389 35.0588 26.3705 34.4505 25.2879 33.3679C24.2052 32.2853 23.597 30.8169 23.597 29.2858C23.597 28.0979 23.969 26.9407 24.6618 25.976C25.0755 25.091 25.1978 24.0975 25.0111 23.1385C24.8243 22.1795 24.3382 21.3045 23.6227 20.6393C22.8109 19.976 22.1572 19.1403 21.7089 18.1927C21.2607 17.2452 21.0292 16.2096 21.0313 15.1614ZM27.4456 8.86252C27.4456 9.05289 27.4831 9.2414 27.556 9.41728C27.6288 9.59316 27.7356 9.75296 27.8702 9.88758C28.0048 10.0222 28.1646 10.129 28.3405 10.2018C28.5164 10.2747 28.7049 10.3122 28.8953 10.3122C29.0856 10.3122 29.2741 10.2747 29.45 10.2018C29.6259 10.129 29.7857 10.0222 29.9203 9.88758C30.0549 9.75296 30.1617 9.59316 30.2346 9.41728C30.3074 9.2414 30.3449 9.05289 30.3449 8.86252V8.13129C30.3449 7.74682 30.1922 7.37809 29.9203 7.10623C29.6485 6.83437 29.2797 6.68164 28.8953 6.68164C28.5108 6.68164 28.1421 6.83437 27.8702 7.10623C27.5984 7.37809 27.4456 7.74682 27.4456 8.13129V8.86252ZM31.9293 10.6611C31.5821 10.6203 31.2654 10.4433 31.0487 10.1691C30.8319 9.89486 30.7329 9.54581 30.7734 9.19863L30.8504 8.53539C30.9325 7.81057 31.5854 7.291 32.3064 7.37311C33.0274 7.45521 33.5457 8.11076 33.461 8.83558L33.3853 9.49754C33.3662 9.66957 33.3133 9.83614 33.2298 9.98774C33.1462 10.1393 33.0336 10.273 32.8984 10.381C32.7632 10.4891 32.608 10.5694 32.4417 10.6175C32.2754 10.6656 32.1013 10.6804 31.9293 10.6611ZM34.4706 11.6836L34.4835 11.6861C34.6259 11.7208 34.7738 11.727 34.9186 11.7045C35.0635 11.682 35.2025 11.6311 35.3277 11.5549C35.4529 11.4787 35.5618 11.3785 35.6483 11.2601C35.7348 11.1418 35.7971 11.0075 35.8317 10.8651L35.969 10.3045C36.0386 10.017 35.9912 9.71363 35.8373 9.46105C35.6833 9.20848 35.4354 9.02735 35.148 8.95745L35.1352 8.95361C34.8477 8.88403 34.5443 8.93142 34.2917 9.08537C34.0392 9.23932 33.858 9.48723 33.7881 9.77464L33.6509 10.3353C33.5813 10.6227 33.6287 10.9261 33.7826 11.1787C33.9366 11.4312 34.1845 11.6124 34.4719 11.6823" fill="black"/>
</svg>
